<svg width="40" height="40" viewBox="0 0 40 40" fill="none" xmlns="http://www.w3.org/2000/svg">
<path d="M37.425 8.35C37.3951 8.27141 37.3575 8.19603 37.3125 8.125C37.2946 8.07787 37.2737 8.03195 37.25 7.9875C37.1336 7.87199 37.0035 7.77124 36.8625 7.6875L36.65 7.6125H36.4H3.67498C3.58772 7.60329 3.49974 7.60329 3.41248 7.6125L3.19998 7.6875C3.13384 7.72344 3.07109 7.76527 3.01248 7.8125C2.94475 7.86031 2.88194 7.91475 2.82498 7.975C2.80119 8.01943 2.78031 8.06536 2.76248 8.1125C2.63028 8.24664 2.5392 8.41579 2.49998 8.6C2.49675 8.64995 2.49675 8.70005 2.49998 8.75V31.25C2.49998 31.5815 2.63168 31.8995 2.8661 32.1339C3.10052 32.3683 3.41846 32.5 3.74998 32.5H36.25C36.5815 32.5 36.8994 32.3683 37.1339 32.1339C37.3683 31.8995 37.5 31.5815 37.5 31.25V8.75C37.5032 8.70005 37.5032 8.64995 37.5 8.6C37.4838 8.51428 37.4586 8.43049 37.425 8.35ZM32.575 10L20 19.675L7.42498 10H32.575ZM35 30H4.99998V11.25L19.2375 22.2C19.4561 22.3683 19.7241 22.4595 20 22.4595C20.2758 22.4595 20.5439 22.3683 20.7625 22.2L35 11.25V30Z" fill="#4BB165"/>
</svg>
